<svg width="24" height="25" viewBox="0 0 24 25" fill="none" xmlns="http://www.w3.org/2000/svg">
<path fill-rule="evenodd" clip-rule="evenodd" d="M15.5355 17.4497C15.926 17.8402 16.5592 17.8402 16.9497 17.4497C17.3402 17.0592 17.3402 16.426 16.9497 16.0355L13.4142 12.5L16.9497 8.96443C17.3402 8.57391 17.3402 7.94074 16.9497 7.55022C16.5592 7.15969 15.926 7.15969 15.5355 7.55022L12 11.0857L8.46444 7.55022C8.07392 7.15969 7.44075 7.15969 7.05023 7.55022C6.6597 7.94074 6.6597 8.57391 7.05023 8.96443L10.5858 12.5L7.05022 16.0355C6.65969 16.426 6.65969 17.0592 7.05022 17.4497C7.44074 17.8402 8.07391 17.8402 8.46443 17.4497L12 13.9142L15.5355 17.4497Z" fill="#808FA3"/>
</svg>
