<svg width="16" height="16" viewBox="0 0 16 16" fill="none" xmlns="http://www.w3.org/2000/svg">
<path fill-rule="evenodd" clip-rule="evenodd" d="M4 9C3.44825 9 3 8.55157 3 8.00042C3 7.44927 3.44825 7 4 7C4.55175 7 5 7.44927 5 8.00042C5 8.55157 4.55175 9 4 9ZM8 9C7.44825 9 7 8.55157 7 8.00042C7 7.44927 7.44825 7 8 7C8.55175 7 9 7.44927 9 8.00042C9 8.55157 8.55175 9 8 9ZM11 8.00042C11 8.55157 11.4482 9 12 9C12.5518 9 13 8.55157 13 8.00042C13 7.44927 12.5518 7 12 7C11.4482 7 11 7.44927 11 8.00042Z" fill="black"/>
</svg>
