<svg width="80" height="80" viewBox="0 0 80 80" fill="none" xmlns="http://www.w3.org/2000/svg">
<circle cx="40" cy="40" r="40" fill="#981BFF"/>
<g clip-path="url(#clip0_6_2869)">
<path fill-rule="evenodd" clip-rule="evenodd" d="M46.5461 14.3179C47.3972 14.5932 47.9503 15.1862 47.8014 15.6098C47.7589 15.7369 47.6099 15.864 47.4397 15.9275C48.844 16.3934 50.6738 17.05 52.4823 18.3208C53.4184 18.9138 55.0355 20.121 56.2057 22.2601C56.7801 23.3191 57.078 24.3145 57.2482 25.0981C57.7801 29.0163 55.6525 33.7817 55.461 34.2053V34.2264L55.3972 34.3535V34.3747C57.2269 37.3822 58.2908 40.9191 58.3333 44.689V44.8796C58.3333 55.9988 49.3759 65 38.3333 65C27.2908 65 18.3333 55.9988 18.3333 44.8796C18.3333 39.1612 20.695 34.0146 24.5035 30.3506C23.0355 31.0284 21.8865 31.3672 21.0567 31.3672C19.8014 31.3672 18.6525 31.0284 18.6525 29.4823C18.6525 27.9362 21.3333 26.1148 27.9291 25.1617C28.2695 23.8909 28.844 22.2601 29.9078 20.5234C30.6099 19.3585 31.3546 18.4267 32.0355 17.6854C32.2482 17.4736 32.4823 17.2618 32.7163 17.0712C34.5461 15.6098 37.7376 14.9956 40.5248 14.8473H40.6525H40.6738C42.3546 14.7838 43.8652 14.8685 44.844 15.0803C44.7376 14.9109 44.7163 14.7415 44.7589 14.5932C44.9078 14.1484 45.7163 14.0425 46.5461 14.3179ZM29.1206 35.5819C27.8652 34.3323 25.7801 34.5441 24.8227 36.0055C24.2908 36.7891 23.8652 37.594 23.5035 38.4411C23.4184 38.6106 23.3333 38.8012 23.2695 38.9706C22.5461 40.8556 22.1631 42.8464 22.1631 44.8585C22.1631 49.0096 23.7589 53.1608 26.9291 56.3165C31.4397 60.8277 37.9716 62.1196 43.6525 60.2135C45.9503 59.4298 48.1206 58.1379 49.9504 56.3165C53.1206 53.1608 54.7163 49.0096 54.695 44.9008C54.695 43.0159 54.3546 41.1097 53.695 39.3095C53.2695 38.1658 52.7163 37.0645 52.0355 36.0267C51.9503 35.8996 51.8652 35.7725 51.7589 35.6666C50.844 34.65 49.3121 34.4806 48.1844 35.243C48.0355 35.3489 47.8865 35.4548 47.7589 35.5819L40.3972 42.91C39.3121 43.9901 37.5461 43.9901 36.461 42.91L32.5248 38.9706L29.1206 35.5819ZM48.9929 39.9449C49.6525 40.8344 50.1418 41.8086 50.4823 42.8464C50.8227 43.8842 50.9929 44.9855 50.9929 46.0445C50.9929 48.0565 50.3972 50.0686 49.2269 51.8053C48.7589 52.5042 47.7589 52.5889 47.1418 52.0383L47.0993 51.9959L41.844 46.7434C41.5248 46.4257 41.3972 45.981 41.461 45.5786C41.4823 45.3244 41.6099 45.0491 41.8014 44.8373L41.844 44.7949L46.9078 39.7966C47.5035 39.1824 48.4823 39.2459 48.9929 39.9449ZM29.2695 39.5213C29.4184 39.5848 29.5248 39.6483 29.6099 39.7331L29.6525 39.7754L34.8865 45.0279C34.9503 45.0914 35.0142 45.155 35.0355 45.2185C35.3972 45.748 35.3546 46.4681 34.9078 46.934L34.8652 46.9764L29.8227 51.9747C29.2269 52.5677 28.2482 52.5042 27.7376 51.8265C26.3759 50.0262 25.7163 47.8659 25.7163 45.7268C25.7163 44.6255 25.9078 43.5242 26.2482 42.4864C26.5248 41.5968 26.9503 40.7497 27.4823 39.966C27.6312 39.7542 27.8652 39.5848 28.078 39.5001C28.4823 39.3307 28.8865 39.3307 29.2695 39.5213ZM50.0567 18.935C50.7589 20.121 50.8014 21.6459 50.6738 22.7896C50.6312 23.3403 50.2269 24.7805 49.7801 26.2842L49.7163 26.496C49.5461 27.0466 49.3759 27.6185 49.2057 28.148C48.9078 29.1222 48.6312 29.9694 48.461 30.4989C49.9929 31.1766 50.9291 31.9179 52.3759 32.5321C52.5248 32.5956 52.695 32.6592 52.844 32.7015L53.0142 32.7651C53.0567 32.7862 53.078 32.7862 53.1206 32.8074C53.3972 32.9133 53.6738 32.998 53.9929 33.1039C54.0355 33.0192 54.0993 32.871 54.1844 32.6592C54.8227 31.0919 56.5035 26.3054 54.8652 23.4885C53.4823 21.1164 51.695 19.7821 50.0567 18.935ZM27.5035 27.4914C25.1631 27.089 24.3121 27.2161 23.2269 27.4067C22.1418 27.5973 20.1418 28.3174 20.1418 29.4823C20.1418 30.6471 22.5461 30.2447 23.6312 29.8635C24.7163 29.4823 27.3121 28.0421 27.695 28.0421C27.9503 28.0421 28.9078 28.741 29.9078 29.3975L30.0567 29.5034C30.5886 29.8635 31.1206 30.1812 31.5461 30.393C34.1418 31.6214 36.5461 32.1932 38.461 32.3203C39.9503 32.4262 41.1418 32.2356 42.0567 32.0661C42.6099 31.9602 43.2057 31.7485 43.844 31.3884C42.5248 31.5367 41.3759 31.6214 40.4397 31.6214C39.0355 31.6214 36.6738 31.1978 34.2695 30.4565C31.8652 29.7152 29.844 27.8938 27.5035 27.4914ZM33.6099 18.3631C31.078 20.121 30.1631 23.6791 29.8865 24.7381C30.0993 24.6746 32.4397 24.4204 35.6738 25.0346C37.4823 25.3099 38.7589 25.8182 39.7376 26.2207C39.7376 26.2207 39.7376 26.2207 39.7589 26.2207C40.3972 26.4748 41.0355 26.7501 41.6738 27.089C41.8014 27.1525 41.9291 27.2161 42.0355 27.2796C43.3972 27.9574 44.6525 28.6351 45.5035 29.0587C45.8227 29.2069 46.1206 29.3552 46.4397 29.5246C46.6099 29.6093 46.7801 29.6941 46.9716 29.7788C47.1631 29.2281 47.4397 28.3174 47.7589 27.3008C47.8014 27.1737 47.844 27.0255 47.8865 26.8984L47.9503 26.6866C47.9716 26.6231 47.9929 26.5595 48.0142 26.4748L48.078 26.263C48.0993 26.1995 48.1206 26.1359 48.1418 26.0512L48.2057 25.8394C48.2269 25.7759 48.2482 25.7123 48.2695 25.6488L48.3333 25.4582C48.7589 24.0392 49.0993 22.7049 49.1418 22.1966C49.2269 20.9894 49.1844 19.3374 48.3759 18.1937C43.7589 15.398 37.0355 15.991 33.6099 18.3631ZM37.3759 18.935C37.5248 19.0197 37.6312 19.1891 37.6525 19.3374C37.7801 19.7398 37.9503 20.1634 38.2269 20.5022L38.2908 20.5658L39.1206 21.4553L40.2269 21.18C40.6738 21.0529 41.078 20.7987 41.4397 20.4811C41.5248 20.3963 41.695 20.2904 41.8865 20.2904C42.2269 20.2693 42.5461 20.4387 42.6738 20.7564C42.8227 21.2011 42.5886 21.6671 42.1418 21.773C42.0567 21.7942 41.9291 21.7942 41.8014 21.773C41.3546 21.6883 40.8865 21.6247 40.4184 21.7306L40.3333 21.7518L39.6099 21.9212C39.9503 22.2601 40.4184 22.5354 40.8652 22.6837C40.9929 22.7472 41.1418 22.832 41.2482 23.0014C41.3972 23.2767 41.3972 23.658 41.1844 23.9121C40.9078 24.251 40.3546 24.2933 40.0355 23.9333C39.9503 23.8486 39.8865 23.7427 39.844 23.6156C39.7163 23.1708 39.5461 22.7472 39.2482 22.4296L39.1844 22.366L38.9078 22.0907L38.5248 22.1754C38.0567 22.3025 37.6312 22.5566 37.2482 22.8743C37.1631 22.9379 37.0567 23.0014 36.9291 23.0226C36.4823 23.1073 36.0355 22.832 35.9716 22.366C35.9503 22.0483 36.1206 21.7095 36.4397 21.5824C36.6312 21.5188 36.7801 21.5188 36.9503 21.5612C37.3972 21.6883 37.8227 21.7518 38.2695 21.6459L38.3546 21.6247L38.4397 21.6036L37.9078 21.0317C37.5674 20.6928 37.1418 20.4387 36.6738 20.2693C36.5461 20.2481 36.461 20.1845 36.3546 20.0786C36.0355 19.761 36.078 19.2315 36.4397 18.9561C36.7163 18.702 37.1206 18.7443 37.3759 18.935Z" fill="white"/>
<path d="M25.2129 29.1533C24.6066 29.448 24.0222 29.7221 23.6301 29.8599C22.7958 30.1533 21.1937 30.4467 20.4861 30.0521L19.5035 31.0674C19.9343 31.2922 20.4862 31.3637 21.0575 31.3637C21.8899 31.3637 23.0373 31.0221 24.4996 30.3388C23.449 31.3514 22.5081 32.4782 21.6966 33.6995C23.4817 34.4599 25.7998 34.9191 28.3335 34.9191C32.2694 34.9191 35.6853 33.8109 37.3903 32.1872C35.6785 31.9449 33.6711 31.3719 31.5463 30.3683C31.1226 30.1681 30.5905 29.8365 30.0564 29.4853L29.9108 29.3891C28.9165 28.7297 27.9492 28.0378 27.6986 28.0378C27.4564 28.0378 26.4038 28.5719 25.3714 29.0761L25.2129 29.1533Z" fill="url(#paint0_linear_6_2869)"/>
</g>
<defs>
<linearGradient id="paint0_linear_6_2869" x1="28.1206" y1="27.5104" x2="28.0738" y2="34.3806" gradientUnits="userSpaceOnUse">
<stop offset="0.0114675" stop-color="#020202"/>
<stop offset="0.0474195" stop-color="#101010" stop-opacity="0.9065"/>
<stop offset="0.1159" stop-color="#363636" stop-opacity="0.7284"/>
<stop offset="0.2098" stop-color="#747474" stop-opacity="0.4843"/>
<stop offset="0.3242" stop-color="#C7C7C7" stop-opacity="0.1867"/>
<stop offset="0.396" stop-color="white" stop-opacity="0"/>
</linearGradient>
<clipPath id="clip0_6_2869">
<rect width="40" height="50.8333" fill="white" transform="translate(18.3333 14.1667)"/>
</clipPath>
</defs>
</svg>
