<svg width="32" height="32" viewBox="0 0 32 32" fill="none" xmlns="http://www.w3.org/2000/svg">
<path d="M0.563518 11.8112C2.87979 3.2763 11.6575 -1.75211 20.1896 0.563748C28.7215 2.8796 33.7525 11.6561 31.4363 20.191C29.1205 28.7236 20.3452 33.7526 11.8107 31.436C3.27882 29.1203 -1.75221 20.3437 0.563518 11.8112Z" fill="#981BFF"/>
<path d="M9.74801 11.3343C9.41151 11.0124 9.41151 10.4905 9.74801 10.1686C10.0845 9.84668 10.6301 9.84668 10.9666 10.1686L16.1362 15.1144C16.4624 15.4265 16.4738 15.929 16.1621 16.2543L11.4233 21.2002C11.1016 21.5357 10.5565 21.5584 10.2058 21.2507C9.85499 20.9432 9.83132 20.4218 10.153 20.0861L14.3343 15.7221L9.74801 11.3343Z" fill="white"/>
<path opacity="0.6" d="M22.1327 19.1594H16.3886C15.7541 19.1594 15.2397 19.676 15.2397 20.3134C15.2397 20.9507 15.7541 21.4674 16.3886 21.4674H22.1327C22.7671 21.4674 23.2815 20.9507 23.2815 20.3134C23.2815 19.676 22.7671 19.1594 22.1327 19.1594Z" fill="white"/>
</svg>
