<svg width="11" height="14" viewBox="0 0 11 14" fill="none" xmlns="http://www.w3.org/2000/svg">
<g clip-path="url(#clip0_318_11)">
<path fill-rule="evenodd" clip-rule="evenodd" d="M7.9697 0.475216C8.18849 0.54632 8.33071 0.699468 8.29242 0.808858C8.28148 0.841676 8.24319 0.874493 8.19943 0.890901C8.56045 1.01123 9.03085 1.18079 9.49579 1.50896C9.73646 1.66211 10.1522 1.97387 10.453 2.52629C10.6007 2.79977 10.6773 3.05684 10.721 3.25921C10.8578 4.27108 10.3108 5.50173 10.2616 5.61112V5.61659L10.2452 5.6494V5.65487C10.7156 6.43155 10.9891 7.34496 11 8.31854V8.36777C11 11.2393 8.69719 13.5638 5.85833 13.5638C3.01948 13.5638 0.716667 11.2393 0.716667 8.36777C0.716667 6.89099 1.32382 5.56189 2.30293 4.61566C1.92551 4.79068 1.63013 4.8782 1.41681 4.8782C1.09409 4.8782 0.798715 4.79068 0.798715 4.39141C0.798715 3.99213 1.48792 3.52175 3.18357 3.27562C3.27109 2.94745 3.41878 2.52629 3.69227 2.07779C3.87278 1.77697 4.06422 1.53631 4.23926 1.34487C4.29396 1.29018 4.35412 1.23548 4.41429 1.18626C4.8847 0.808858 5.70518 0.650242 6.42173 0.611955H6.45455H6.46002C6.89214 0.595546 7.2805 0.617424 7.53211 0.67212C7.50476 0.628363 7.49929 0.584607 7.51023 0.54632C7.54852 0.43146 7.75638 0.404112 7.9697 0.475216ZM3.48989 5.96664C3.16716 5.64393 2.63112 5.69863 2.38497 6.07603C2.24823 6.2784 2.13883 6.48624 2.04584 6.70502C2.02396 6.74878 2.00208 6.79801 1.98567 6.84176C1.7997 7.32855 1.70124 7.84269 1.70124 8.3623C1.70124 9.43433 2.11148 10.5064 2.92649 11.3213C4.0861 12.4863 5.76535 12.82 7.2258 12.3277C7.81654 12.1253 8.37447 11.7917 8.84488 11.3213C9.65989 10.5064 10.0701 9.43433 10.0647 8.37324C10.0647 7.88645 9.97714 7.39419 9.80757 6.92928C9.69818 6.63392 9.55596 6.3495 9.38092 6.0815C9.35904 6.04868 9.33717 6.01586 9.30982 5.98851C9.07461 5.72598 8.68078 5.68222 8.39088 5.87912C8.35259 5.90647 8.3143 5.93382 8.28148 5.96664L6.38891 7.8591C6.10995 8.13804 5.65595 8.13804 5.37699 7.8591L4.36506 6.84176L3.48989 5.96664ZM8.59873 7.09336C8.7683 7.32308 8.89411 7.57468 8.98162 7.84269C9.06914 8.1107 9.1129 8.39511 9.1129 8.66859C9.1129 9.1882 8.95974 9.7078 8.6589 10.1563C8.53857 10.3368 8.28148 10.3587 8.12286 10.2165L8.11192 10.2055L6.76086 8.84909C6.67881 8.76704 6.64599 8.65218 6.6624 8.54826C6.66787 8.48263 6.70069 8.41152 6.74992 8.35683L6.76086 8.34589L8.06269 7.05508C8.21584 6.89646 8.46746 6.91287 8.59873 7.09336ZM3.52817 6.98397C3.56646 7.00038 3.59381 7.01679 3.61569 7.03867L3.62663 7.04961L4.97222 8.40605C4.98863 8.42246 5.00504 8.43887 5.01051 8.45528C5.10349 8.59202 5.09255 8.77798 4.97769 8.89831L4.96675 8.90925L3.67039 10.2001C3.51723 10.3532 3.26562 10.3368 3.13434 10.1618C2.78427 9.69687 2.61471 9.13897 2.61471 8.58655C2.61471 8.30213 2.66394 8.01772 2.75145 7.74971C2.82256 7.51999 2.93196 7.3012 3.06871 7.09883C3.107 7.04414 3.16716 7.00038 3.22186 6.9785C3.32579 6.93475 3.42972 6.93475 3.52817 6.98397ZM8.87223 1.66758C9.05273 1.97387 9.06367 2.36768 9.03085 2.66303C9.01991 2.80524 8.91599 3.17717 8.80112 3.56551L8.78471 3.6202C8.74095 3.76241 8.69719 3.91009 8.65343 4.04683C8.57685 4.29843 8.50575 4.51721 8.46199 4.65395C8.85582 4.82897 9.09649 5.02041 9.46844 5.17902C9.50673 5.19543 9.55049 5.21184 9.58878 5.22278L9.63254 5.23919C9.64348 5.24466 9.64895 5.24466 9.65989 5.25013C9.73099 5.27747 9.8021 5.29935 9.88415 5.3267C9.89509 5.30482 9.9115 5.26654 9.93338 5.21184C10.0975 4.80709 10.5296 3.57098 10.1084 2.84353C9.75287 2.23094 9.29341 1.88636 8.87223 1.66758ZM3.07418 3.87727C2.47249 3.77335 2.2537 3.80617 1.97473 3.85539C1.69577 3.90462 1.18161 4.09058 1.18161 4.39141C1.18161 4.69223 1.7997 4.58831 2.07866 4.48986C2.35762 4.39141 3.02495 4.01948 3.12341 4.01948C3.18904 4.01948 3.43519 4.19997 3.69227 4.36953L3.73056 4.39688C3.86731 4.48986 4.00405 4.5719 4.11345 4.6266C4.78077 4.94383 5.39887 5.09151 5.89115 5.12433C6.27404 5.15167 6.58036 5.10245 6.81556 5.05869C6.95778 5.03134 7.11093 4.97665 7.27503 4.88367C6.9359 4.92195 6.64052 4.94383 6.39985 4.94383C6.03884 4.94383 5.43169 4.83444 4.81359 4.64301C4.1955 4.45157 3.67586 3.98119 3.07418 3.87727ZM4.64403 1.5199C3.99311 1.97387 3.75791 2.89275 3.6868 3.16623C3.7415 3.14982 4.34318 3.08419 5.1746 3.2428C5.63954 3.31391 5.96773 3.44518 6.21935 3.5491C6.21935 3.5491 6.21935 3.5491 6.22482 3.5491C6.38891 3.61473 6.55301 3.68584 6.7171 3.77335C6.74992 3.78976 6.78274 3.80617 6.81009 3.82258C7.16016 3.9976 7.48288 4.17263 7.70168 4.28202C7.78372 4.3203 7.8603 4.35859 7.94235 4.40235C7.98611 4.42423 8.02987 4.4461 8.0791 4.46798C8.12833 4.32577 8.19943 4.09058 8.28148 3.82805C8.29242 3.79523 8.30336 3.75694 8.3143 3.72412L8.33071 3.66943C8.33618 3.65302 8.34165 3.63661 8.34712 3.61473L8.36353 3.56004C8.369 3.54363 8.37447 3.52722 8.37994 3.50534L8.39635 3.45065C8.40182 3.43424 8.40729 3.41783 8.41276 3.40142L8.42917 3.3522C8.53857 2.98574 8.62608 2.64116 8.63702 2.50989C8.6589 2.19812 8.64796 1.7715 8.44011 1.47614C7.25315 0.754163 5.52467 0.90731 4.64403 1.5199ZM5.61219 1.66758C5.65048 1.68945 5.67783 1.73321 5.6833 1.7715C5.71612 1.87542 5.75988 1.98481 5.83099 2.07232L5.8474 2.08873L6.06072 2.31845L6.34515 2.24735C6.46002 2.21453 6.56395 2.1489 6.65693 2.06685C6.67881 2.04497 6.72257 2.01763 6.7718 2.01763C6.85932 2.01216 6.94137 2.05591 6.97419 2.13796C7.01247 2.25282 6.95231 2.37315 6.83744 2.4005C6.81556 2.40596 6.78274 2.40596 6.74992 2.4005C6.63505 2.37862 6.51472 2.36221 6.39438 2.38956L6.3725 2.39503L6.18653 2.43878C6.27404 2.52629 6.39438 2.5974 6.50925 2.63569C6.54207 2.65209 6.58036 2.67397 6.60771 2.71773C6.64599 2.78883 6.64599 2.88728 6.5913 2.95292C6.52019 3.04043 6.37797 3.05137 6.29592 2.95839C6.27404 2.93651 6.25763 2.90916 6.24669 2.87635C6.21388 2.76148 6.17012 2.65209 6.09354 2.57005L6.07713 2.55364L6.00602 2.48254L5.90756 2.50442C5.78723 2.53723 5.67783 2.60287 5.57937 2.68491C5.55749 2.70132 5.53014 2.71773 5.49732 2.7232C5.38246 2.74508 5.26759 2.67397 5.25118 2.55364C5.24571 2.4716 5.28947 2.38409 5.37152 2.35127C5.42075 2.33486 5.45903 2.33486 5.50279 2.3458C5.61766 2.37862 5.72706 2.39503 5.84192 2.36768L5.8638 2.36221L5.88568 2.35674L5.74894 2.20906C5.66142 2.12155 5.55202 2.05591 5.43169 2.01216C5.39887 2.00669 5.37699 1.99028 5.34964 1.96293C5.26759 1.88089 5.27853 1.74415 5.37152 1.67305C5.44263 1.60741 5.54655 1.61835 5.61219 1.66758Z" fill="black"/>
</g>
<defs>
<clipPath id="clip0_318_11">
<rect width="10.2833" height="13.1277" fill="black" transform="translate(0.716667 0.43617)"/>
</clipPath>
</defs>
</svg>
